# xmcd
#
# Track frame offsets: 
#        183
#        16963
#        28508
#        44408
#        62060
#        76833
#        100885
#        118108
#        144183
#        166583
#        186395
#
# Disc length: 2664 seconds
#
# Revision: 5
# Processed by: cddbd v1.5.2PL0 Copyright (c) Steve Scherf et al.
# Submitted via: ExactAudioCopy v1.3
#
DISCID=850a660b
DTITLE=Jim Kahr - Burnin' The Blues (Live In Berlin)
DYEAR=1993
DGENRE=Blues
TTITLE0=Time For A Change
TTITLE1=Little Red Rooster
TTITLE2=Crossed Many Roads
TTITLE3=Born To Boogie
TTITLE4=Feel Like Ramblin'
TTITLE5=Rainy Night In Georgia
TTITLE6=Pushin' Back Time
TTITLE7=Ain't No Sunshine
TTITLE8=Inner City Blues
TTITLE9=That's Allright
TTITLE10=We Need Time
EXTD=
EXTT0=
EXTT1=
EXTT2=
EXTT3=
EXTT4=
EXTT5=
EXTT6=
EXTT7=
EXTT8=
EXTT9=
EXTT10=
PLAYORDER=
